PathFileType	4	(X/Y/Z)	 2.2Hzlow3min.trc
DataRate	CameraRate	NumFrames	NumMarkers	Units	OrigDataRate	OrigDataStartFrame	OrigNumFrames
200	200	4	35	m	200	626	1000
Frame#	Time	C7			LSH			RSH			MAN			RASI			LASI			HIPR			HIPL			RPSI			LPSI			COX			RTHI1			RTHI2			RTHI3			RTHI4			RSHA1			RSHA2			RSHA3			RSHA4			RHEEL			RMET5			RMET1			RTOE			LTHI1			LTHI2			LTHI3			LTHI4			LSHA1			LSHA2			LSHA3			LSHA4			LHEEL			LMET5			LMET1			LTOE			
		X1	Y1	Z1	X2	Y2	Z2	X3	Y3	Z3	X4	Y4	Z4	X5	Y5	Z5	X6	Y6	Z6	X7	Y7	Z7	X8	Y8	Z8	X9	Y9	Z9	X10	Y10	Z10	X11	Y11	Z11	X12	Y12	Z12	X13	Y13	Z13	X14	Y14	Z14	X15	Y15	Z15	X16	Y16	Z16	X17	Y17	Z17	X18	Y18	Z18	X19	Y19	Z19	X20	Y20	Z20	X21	Y21	Z21	X22	Y22	Z22	X23	Y23	Z23	X24	Y24	Z24	X25	Y25	Z25	X26	Y26	Z26	X27	Y27	Z27	X28	Y28	Z28	X29	Y29	Z29	X30	Y30	Z30	X31	Y31	Z31	X32	Y32	Z32	X33	Y33	Z33	X34	Y34	Z34	X35	Y35	Z35	
626	3.1300	-0.000000	0.000000	-0.000000	-0.242116	1.317288	-0.703521	-0.256953	1.300147	-0.353711	-0.182194	1.271713	-0.527411	-0.158427	0.890188	-0.391526	-0.139026	0.884828	-0.620096	-0.225562	0.935702	-0.372885	-0.199552	0.921032	-0.659367	-0.315805	0.911434	-0.469535	-0.309509	0.906971	-0.573729	-0.311688	0.921658	-0.518235	-0.237663	0.684987	-0.347703	-0.212990	0.630757	-0.347165	-0.153697	0.655409	-0.336970	-0.171994	0.714041	-0.337426	-0.229434	0.326013	-0.349828	-0.253325	0.290573	-0.357152	-0.199829	0.265146	-0.371051	-0.181012	0.300678	-0.367479	-0.398067	0.077761	-0.432346	-0.257025	0.027937	-0.367190	-0.220248	0.037065	-0.439093	-0.191282	0.027579	-0.436598	-0.204616	0.670735	-0.688447	-0.172150	0.618337	-0.688740	-0.114548	0.647453	-0.688654	-0.138395	0.703185	-0.688508	-0.209563	0.297703	-0.688178	-0.233048	0.264939	-0.685487	-0.178682	0.235329	-0.674016	-0.161130	0.275692	-0.679101	-0.375596	0.068863	-0.628114	-0.230190	0.029260	-0.688836	-0.189663	0.037552	-0.623982	-0.162723	0.026642	-0.620447	
627	3.1350	-0.000000	0.000000	-0.000000	-0.241516	1.319610	-0.703644	-0.256909	1.302440	-0.353922	-0.181824	1.274145	-0.527382	-0.158149	0.891976	-0.392038	-0.138849	0.887182	-0.620346	-0.224870	0.937558	-0.372997	-0.198760	0.923741	-0.659566	-0.315592	0.913532	-0.469618	-0.309368	0.909379	-0.574121	-0.311563	0.923759	-0.518406	-0.237528	0.686842	-0.348218	-0.212970	0.632564	-0.347787	-0.153600	0.657085	-0.337862	-0.171753	0.715754	-0.338204	-0.229797	0.327447	-0.350218	-0.253637	0.291909	-0.357456	-0.200083	0.266643	-0.371525	-0.181347	0.302222	-0.368069	-0.397813	0.078813	-0.431954	-0.256918	0.027963	-0.367258	-0.220192	0.037043	-0.439137	-0.191294	0.027572	-0.436649	-0.204705	0.673120	-0.688852	-0.172477	0.620573	-0.688874	-0.114756	0.649425	-0.688454	-0.138341	0.705264	-0.688548	-0.210304	0.299095	-0.688053	-0.233646	0.266206	-0.685471	-0.179190	0.236855	-0.673766	-0.161799	0.277296	-0.678776	-0.375364	0.069737	-0.628535	-0.230074	0.029309	-0.688787	-0.189640	0.037542	-0.623946	-0.162744	0.026620	-0.620423	
628	3.1400	-0.000000	0.000000	-0.000000	-0.240969	1.322378	-0.703775	-0.256885	1.305209	-0.354140	-0.181448	1.277043	-0.527310	-0.157793	0.894189	-0.392617	-0.138686	0.889939	-0.620725	-0.224117	0.939794	-0.373123	-0.198195	0.926669	-0.659835	-0.315327	0.916050	-0.469726	-0.309177	0.912163	-0.574460	-0.311368	0.926260	-0.518558	-0.237415	0.689150	-0.348713	-0.213006	0.634807	-0.348398	-0.153533	0.659144	-0.338757	-0.171519	0.717888	-0.339000	-0.230309	0.329247	-0.350589	-0.254069	0.293601	-0.357741	-0.200427	0.268517	-0.371913	-0.181801	0.304139	-0.368604	-0.397480	0.080135	-0.431522	-0.256786	0.028000	-0.367333	-0.220119	0.037018	-0.439180	-0.191307	0.027567	-0.436706	-0.204664	0.675918	-0.689349	-0.172654	0.623242	-0.689080	-0.114832	0.651852	-0.688186	-0.138174	0.707790	-0.688514	-0.211081	0.300833	-0.687959	-0.234268	0.267813	-0.685498	-0.179714	0.238757	-0.673533	-0.162499	0.279263	-0.678453	-0.375034	0.070907	-0.629048	-0.229920	0.029383	-0.688723	-0.189605	0.037529	-0.623900	-0.162766	0.026593	-0.620393	
629	3.1450	-0.000000	0.000000	-0.000000	-0.240462	1.325566	-0.703903	-0.256888	1.308421	-0.354362	-0.181108	1.280287	-0.527292	-0.157375	0.896810	-0.393263	-0.138535	0.893087	-0.621224	-0.223325	0.942434	-0.373296	-0.197880	0.929838	-0.660169	-0.315014	0.918967	-0.469861	-0.308941	0.915294	-0.574750	-0.311106	0.929127	-0.518690	-0.237349	0.691875	-0.349203	-0.213113	0.637462	-0.348996	-0.153511	0.661575	-0.339608	-0.171317	0.720417	-0.339801	-0.230980	0.331409	-0.350944	-0.254630	0.295655	-0.358012	-0.200867	0.270751	-0.372205	-0.182391	0.306447	-0.369053	-0.397061	0.081727	-0.431043	-0.256631	0.028053	-0.367416	-0.220029	0.036992	-0.439224	-0.191321	0.027563	-0.436770	-0.204510	0.679110	-0.689935	-0.172708	0.626309	-0.689355	-0.114798	0.654709	-0.687874	-0.137911	0.710732	-0.688444	-0.211906	0.302899	-0.687910	-0.234924	0.269761	-0.685573	-0.180269	0.241009	-0.673341	-0.163238	0.281587	-0.678161	-0.374604	0.072380	-0.629662	-0.229727	0.029487	-0.688647	-0.189558	0.037514	-0.623846	-0.162792	0.026563	-0.620355	
